<mxfile host="app.diagrams.net" modified="2021-01-22T06:57:13.351Z" agent="5.0 (Windows NT 10.0; Win64; x64) AppleWebKit/537.36 (KHTML, like Gecko) Chrome/87.0.4280.141 Safari/537.36" etag="6_YdVAR0h6YHPSEE-GcJ" version="14.2.6" type="github">
  <diagram id="5Jdt1sr74zqBMGvPORQF" name="Page-1">
    <mxGraphModel dx="2489" dy="716" grid="1" gridSize="10" guides="1" tooltips="1" connect="1" arrows="1" fold="1" page="1" pageScale="1" pageWidth="827" pageHeight="1169" math="0" shadow="0">
      <root>
        <mxCell id="0" />
        <mxCell id="1" parent="0" />
        <mxCell id="2feHBrQUYtX6C1LsdjSL-1" value="" style="rounded=0;whiteSpace=wrap;html=1;" vertex="1" parent="1">
          <mxGeometry x="80" y="600" width="240" height="40" as="geometry" />
        </mxCell>
        <mxCell id="2feHBrQUYtX6C1LsdjSL-13" style="edgeStyle=none;rounded=0;orthogonalLoop=1;jettySize=auto;html=1;exitX=0.5;exitY=0;exitDx=0;exitDy=0;entryX=0.5;entryY=1;entryDx=0;entryDy=0;strokeColor=#FFB570;fillColor=#FF0000;" edge="1" parent="1" source="2feHBrQUYtX6C1LsdjSL-2" target="2feHBrQUYtX6C1LsdjSL-9">
          <mxGeometry relative="1" as="geometry" />
        </mxCell>
        <mxCell id="2feHBrQUYtX6C1LsdjSL-2" value="64k" style="whiteSpace=wrap;html=1;aspect=fixed;strokeColor=#FF0000;" vertex="1" parent="1">
          <mxGeometry x="80" y="600" width="40" height="40" as="geometry" />
        </mxCell>
        <mxCell id="2feHBrQUYtX6C1LsdjSL-3" value="64k" style="whiteSpace=wrap;html=1;aspect=fixed;strokeColor=#FF0000;" vertex="1" parent="1">
          <mxGeometry x="120" y="600" width="40" height="40" as="geometry" />
        </mxCell>
        <mxCell id="2feHBrQUYtX6C1LsdjSL-4" value="64k" style="whiteSpace=wrap;html=1;aspect=fixed;strokeColor=#FF0000;" vertex="1" parent="1">
          <mxGeometry x="160" y="600" width="40" height="40" as="geometry" />
        </mxCell>
        <mxCell id="2feHBrQUYtX6C1LsdjSL-5" value="64k" style="whiteSpace=wrap;html=1;aspect=fixed;strokeColor=#FF0000;" vertex="1" parent="1">
          <mxGeometry x="200" y="600" width="40" height="40" as="geometry" />
        </mxCell>
        <mxCell id="2feHBrQUYtX6C1LsdjSL-6" value="64k" style="whiteSpace=wrap;html=1;aspect=fixed;strokeColor=#FF0000;" vertex="1" parent="1">
          <mxGeometry x="240" y="600" width="40" height="40" as="geometry" />
        </mxCell>
        <mxCell id="2feHBrQUYtX6C1LsdjSL-7" value="64k" style="whiteSpace=wrap;html=1;aspect=fixed;strokeColor=#FF0000;" vertex="1" parent="1">
          <mxGeometry x="280" y="600" width="40" height="40" as="geometry" />
        </mxCell>
        <mxCell id="2feHBrQUYtX6C1LsdjSL-8" value="&lt;b&gt;redo&amp;nbsp; log&amp;nbsp; file&lt;/b&gt;" style="text;html=1;strokeColor=none;fillColor=none;align=center;verticalAlign=middle;whiteSpace=wrap;rounded=0;" vertex="1" parent="1">
          <mxGeometry x="10" y="565" width="80" height="20" as="geometry" />
        </mxCell>
        <mxCell id="2feHBrQUYtX6C1LsdjSL-17" style="edgeStyle=orthogonalEdgeStyle;rounded=0;orthogonalLoop=1;jettySize=auto;html=1;exitX=0.5;exitY=0;exitDx=0;exitDy=0;entryX=0;entryY=0.5;entryDx=0;entryDy=0;" edge="1" parent="1" source="2feHBrQUYtX6C1LsdjSL-9" target="2feHBrQUYtX6C1LsdjSL-15">
          <mxGeometry relative="1" as="geometry" />
        </mxCell>
        <mxCell id="2feHBrQUYtX6C1LsdjSL-9" value="64k" style="whiteSpace=wrap;html=1;aspect=fixed;" vertex="1" parent="1">
          <mxGeometry x="80" y="400" width="40" height="40" as="geometry" />
        </mxCell>
        <mxCell id="2feHBrQUYtX6C1LsdjSL-10" value="...." style="whiteSpace=wrap;html=1;aspect=fixed;" vertex="1" parent="1">
          <mxGeometry x="120" y="400" width="40" height="40" as="geometry" />
        </mxCell>
        <mxCell id="2feHBrQUYtX6C1LsdjSL-11" value="64k" style="whiteSpace=wrap;html=1;aspect=fixed;" vertex="1" parent="1">
          <mxGeometry x="160" y="400" width="40" height="40" as="geometry" />
        </mxCell>
        <mxCell id="2feHBrQUYtX6C1LsdjSL-12" value="&lt;b&gt;log buffer&lt;/b&gt;" style="text;html=1;strokeColor=none;fillColor=none;align=center;verticalAlign=middle;whiteSpace=wrap;rounded=0;" vertex="1" parent="1">
          <mxGeometry x="10" y="350" width="70" height="20" as="geometry" />
        </mxCell>
        <mxCell id="2feHBrQUYtX6C1LsdjSL-14" value="&lt;b&gt;log_reader&amp;nbsp; thread&lt;/b&gt;" style="text;html=1;strokeColor=none;fillColor=none;align=center;verticalAlign=middle;whiteSpace=wrap;rounded=0;" vertex="1" parent="1">
          <mxGeometry x="-10" y="490" width="110" height="20" as="geometry" />
        </mxCell>
        <mxCell id="2feHBrQUYtX6C1LsdjSL-21" style="edgeStyle=orthogonalEdgeStyle;rounded=0;orthogonalLoop=1;jettySize=auto;html=1;exitX=1;exitY=0.5;exitDx=0;exitDy=0;entryX=0;entryY=0.5;entryDx=0;entryDy=0;" edge="1" parent="1" source="2feHBrQUYtX6C1LsdjSL-15" target="2feHBrQUYtX6C1LsdjSL-18">
          <mxGeometry relative="1" as="geometry" />
        </mxCell>
        <mxCell id="2feHBrQUYtX6C1LsdjSL-15" value="2M" style="whiteSpace=wrap;html=1;aspect=fixed;" vertex="1" parent="1">
          <mxGeometry x="320" y="360" width="40" height="40" as="geometry" />
        </mxCell>
        <mxCell id="2feHBrQUYtX6C1LsdjSL-26" style="edgeStyle=none;rounded=0;orthogonalLoop=1;jettySize=auto;html=1;exitX=0;exitY=1;exitDx=0;exitDy=0;entryX=0;entryY=0;entryDx=0;entryDy=0;" edge="1" parent="1" source="2feHBrQUYtX6C1LsdjSL-18" target="2feHBrQUYtX6C1LsdjSL-22">
          <mxGeometry relative="1" as="geometry" />
        </mxCell>
        <mxCell id="2feHBrQUYtX6C1LsdjSL-27" style="edgeStyle=none;rounded=0;orthogonalLoop=1;jettySize=auto;html=1;exitX=1;exitY=1;exitDx=0;exitDy=0;entryX=1;entryY=0;entryDx=0;entryDy=0;" edge="1" parent="1" source="2feHBrQUYtX6C1LsdjSL-18" target="2feHBrQUYtX6C1LsdjSL-25">
          <mxGeometry relative="1" as="geometry" />
        </mxCell>
        <mxCell id="2feHBrQUYtX6C1LsdjSL-18" value="hash" style="whiteSpace=wrap;html=1;aspect=fixed;" vertex="1" parent="1">
          <mxGeometry x="480" y="360" width="40" height="40" as="geometry" />
        </mxCell>
        <mxCell id="2feHBrQUYtX6C1LsdjSL-19" value="...." style="whiteSpace=wrap;html=1;aspect=fixed;" vertex="1" parent="1">
          <mxGeometry x="520" y="360" width="40" height="40" as="geometry" />
        </mxCell>
        <mxCell id="2feHBrQUYtX6C1LsdjSL-20" value="hash" style="whiteSpace=wrap;html=1;aspect=fixed;" vertex="1" parent="1">
          <mxGeometry x="560" y="360" width="40" height="40" as="geometry" />
        </mxCell>
        <mxCell id="2feHBrQUYtX6C1LsdjSL-31" style="edgeStyle=none;rounded=0;orthogonalLoop=1;jettySize=auto;html=1;exitX=0.5;exitY=1;exitDx=0;exitDy=0;entryX=0.5;entryY=0;entryDx=0;entryDy=0;" edge="1" parent="1" source="2feHBrQUYtX6C1LsdjSL-22" target="2feHBrQUYtX6C1LsdjSL-30">
          <mxGeometry relative="1" as="geometry" />
        </mxCell>
        <mxCell id="2feHBrQUYtX6C1LsdjSL-22" value="sys page" style="whiteSpace=wrap;html=1;aspect=fixed;" vertex="1" parent="1">
          <mxGeometry x="440" y="480" width="40" height="40" as="geometry" />
        </mxCell>
        <mxCell id="2feHBrQUYtX6C1LsdjSL-35" style="edgeStyle=none;rounded=0;orthogonalLoop=1;jettySize=auto;html=1;exitX=0.5;exitY=1;exitDx=0;exitDy=0;entryX=0.5;entryY=0;entryDx=0;entryDy=0;strokeColor=#000000;fillColor=#FF0000;" edge="1" parent="1" source="2feHBrQUYtX6C1LsdjSL-23" target="2feHBrQUYtX6C1LsdjSL-32">
          <mxGeometry relative="1" as="geometry" />
        </mxCell>
        <mxCell id="2feHBrQUYtX6C1LsdjSL-23" value="user page" style="whiteSpace=wrap;html=1;aspect=fixed;" vertex="1" parent="1">
          <mxGeometry x="480" y="480" width="40" height="40" as="geometry" />
        </mxCell>
        <mxCell id="2feHBrQUYtX6C1LsdjSL-24" value="......" style="whiteSpace=wrap;html=1;aspect=fixed;" vertex="1" parent="1">
          <mxGeometry x="520" y="480" width="40" height="40" as="geometry" />
        </mxCell>
        <mxCell id="2feHBrQUYtX6C1LsdjSL-36" style="edgeStyle=none;rounded=0;orthogonalLoop=1;jettySize=auto;html=1;exitX=0.5;exitY=1;exitDx=0;exitDy=0;entryX=0.5;entryY=0;entryDx=0;entryDy=0;strokeColor=#000000;fillColor=#FF0000;" edge="1" parent="1" source="2feHBrQUYtX6C1LsdjSL-25" target="2feHBrQUYtX6C1LsdjSL-34">
          <mxGeometry relative="1" as="geometry" />
        </mxCell>
        <mxCell id="2feHBrQUYtX6C1LsdjSL-25" value="data page_n" style="whiteSpace=wrap;html=1;aspect=fixed;" vertex="1" parent="1">
          <mxGeometry x="560" y="480" width="40" height="40" as="geometry" />
        </mxCell>
        <mxCell id="2feHBrQUYtX6C1LsdjSL-30" value="record list" style="whiteSpace=wrap;html=1;aspect=fixed;" vertex="1" parent="1">
          <mxGeometry x="440" y="600" width="40" height="40" as="geometry" />
        </mxCell>
        <mxCell id="2feHBrQUYtX6C1LsdjSL-32" value="record list" style="whiteSpace=wrap;html=1;aspect=fixed;" vertex="1" parent="1">
          <mxGeometry x="480" y="600" width="40" height="40" as="geometry" />
        </mxCell>
        <mxCell id="2feHBrQUYtX6C1LsdjSL-34" value="record list" style="whiteSpace=wrap;html=1;aspect=fixed;" vertex="1" parent="1">
          <mxGeometry x="560" y="600" width="40" height="40" as="geometry" />
        </mxCell>
        <mxCell id="2feHBrQUYtX6C1LsdjSL-37" value="...." style="whiteSpace=wrap;html=1;aspect=fixed;" vertex="1" parent="1">
          <mxGeometry x="520" y="600" width="40" height="40" as="geometry" />
        </mxCell>
        <mxCell id="2feHBrQUYtX6C1LsdjSL-38" style="edgeStyle=none;rounded=0;orthogonalLoop=1;jettySize=auto;html=1;entryX=0.5;entryY=1;entryDx=0;entryDy=0;strokeColor=#67AB9F;fillColor=#FF0000;" edge="1" parent="1">
          <mxGeometry relative="1" as="geometry">
            <mxPoint x="460" y="730" as="sourcePoint" />
            <mxPoint x="459.5" y="640" as="targetPoint" />
          </mxGeometry>
        </mxCell>
        <mxCell id="2feHBrQUYtX6C1LsdjSL-39" style="edgeStyle=none;rounded=0;orthogonalLoop=1;jettySize=auto;html=1;entryX=0.5;entryY=1;entryDx=0;entryDy=0;strokeColor=#67AB9F;fillColor=#FF0000;" edge="1" parent="1">
          <mxGeometry relative="1" as="geometry">
            <mxPoint x="500" y="730" as="sourcePoint" />
            <mxPoint x="499.5" y="640" as="targetPoint" />
          </mxGeometry>
        </mxCell>
        <mxCell id="2feHBrQUYtX6C1LsdjSL-40" style="edgeStyle=none;rounded=0;orthogonalLoop=1;jettySize=auto;html=1;entryX=0.5;entryY=1;entryDx=0;entryDy=0;strokeColor=#67AB9F;fillColor=#FF0000;" edge="1" parent="1">
          <mxGeometry relative="1" as="geometry">
            <mxPoint x="580" y="730" as="sourcePoint" />
            <mxPoint x="579.5" y="640" as="targetPoint" />
          </mxGeometry>
        </mxCell>
        <mxCell id="2feHBrQUYtX6C1LsdjSL-41" value="&lt;b&gt;work thread&lt;/b&gt;" style="text;html=1;strokeColor=none;fillColor=none;align=center;verticalAlign=middle;whiteSpace=wrap;rounded=0;" vertex="1" parent="1">
          <mxGeometry x="440" y="740" width="40" height="20" as="geometry" />
        </mxCell>
        <mxCell id="2feHBrQUYtX6C1LsdjSL-42" value="&lt;b&gt;work thread&lt;/b&gt;" style="text;html=1;strokeColor=none;fillColor=none;align=center;verticalAlign=middle;whiteSpace=wrap;rounded=0;" vertex="1" parent="1">
          <mxGeometry x="480" y="740" width="40" height="20" as="geometry" />
        </mxCell>
        <mxCell id="2feHBrQUYtX6C1LsdjSL-44" value="&lt;b&gt;work thread&lt;/b&gt;" style="text;html=1;strokeColor=none;fillColor=none;align=center;verticalAlign=middle;whiteSpace=wrap;rounded=0;" vertex="1" parent="1">
          <mxGeometry x="560" y="740" width="40" height="20" as="geometry" />
        </mxCell>
        <mxCell id="2feHBrQUYtX6C1LsdjSL-45" value="&lt;b&gt;coordinate thread&lt;/b&gt;" style="text;html=1;strokeColor=none;fillColor=none;align=center;verticalAlign=middle;whiteSpace=wrap;rounded=0;" vertex="1" parent="1">
          <mxGeometry x="320" y="300" width="40" height="20" as="geometry" />
        </mxCell>
      </root>
    </mxGraphModel>
  </diagram>
</mxfile>
